<svg width="28" height="28" viewBox="0 0 28 28" fill="none" xmlns="http://www.w3.org/2000/svg">
<path d="M10.8053 9.8051L13.6604 5.08939L11.7677 1.94559C11.5111 1.51786 11.1422 1.30399 10.661 1.30399C10.1798 1.30399 9.81086 1.51786 9.55422 1.94559L6.41042 7.17457L10.8053 9.8051ZM23.2201 18.5308L20.3651 13.783L24.8241 11.2166L26.8772 14.6491C27.1125 15.0127 27.2408 15.419 27.2622 15.8682C27.2836 16.3173 27.1873 16.7343 26.9735 17.1193C26.7596 17.547 26.4442 17.8892 26.0271 18.1458C25.6101 18.4024 25.1556 18.5308 24.6637 18.5308H23.2201ZM19.531 27.5131L14.3982 22.3803L19.531 17.2476V19.8139H25.6261L23.7655 23.5352C23.5303 23.9629 23.2095 24.3051 22.8031 24.5617C22.3968 24.8184 21.9477 24.9467 21.4558 24.9467H19.531V27.5131ZM7.11617 24.9467C6.68844 24.9467 6.29814 24.8344 5.94526 24.6099C5.59238 24.3853 5.3304 24.0912 5.15931 23.7277C4.98822 23.3855 4.90802 23.0273 4.91871 22.653C4.9294 22.2787 5.03099 21.9312 5.22347 21.6104L6.31418 19.8139H11.8319V24.9467H7.11617ZM3.94028 21.2896L1.85511 17.1193C1.66263 16.7343 1.57174 16.3226 1.58243 15.8842C1.59312 15.4458 1.71609 15.0341 1.95134 14.6491L2.46462 13.783L0.283203 12.4677L7.30865 10.7033L9.07303 17.7609L6.85953 16.4135L3.94028 21.2896ZM21.2633 10.3184L14.2378 8.55399L16.4513 7.23873L12.4414 0.566162H16.9646C17.4137 0.566162 17.8361 0.678441 18.2318 0.902998C18.6274 1.12756 18.9429 1.43231 19.1781 1.81727L20.8463 4.6082L23.0277 3.26085L21.2633 10.3184Z" fill="#14AE5C"/>
</svg>
