<svg width="79" height="51" viewBox="0 0 79 51" fill="none" xmlns="http://www.w3.org/2000/svg">
<rect x="0.977142" y="9.66846" width="56.031" height="31.3117" fill="white" stroke="#14AE5C" stroke-width="0.5"/>
<path d="M5.64332 37.3242V14.0515H14.3706C16.1585 14.0515 17.6585 14.3621 18.8706 14.9833C20.0903 15.6045 21.0107 16.4757 21.632 17.5969C22.2607 18.7106 22.5751 20.0098 22.5751 21.4947C22.5751 22.9871 22.257 24.2826 21.6206 25.381C20.9918 26.4719 20.0638 27.3166 18.8365 27.9151C17.6092 28.506 16.1017 28.8015 14.3138 28.8015H8.09787V25.3015H13.7456C14.791 25.3015 15.6471 25.1576 16.3138 24.8697C16.9804 24.5742 17.4729 24.1462 17.791 23.5856C18.1168 23.0174 18.2797 22.3204 18.2797 21.4947C18.2797 20.6689 18.1168 19.9644 17.791 19.381C17.4653 18.7901 16.9691 18.3432 16.3024 18.0401C15.6357 17.7295 14.7759 17.5742 13.7229 17.5742H9.85923V37.3242H5.64332ZM17.666 26.7788L23.4274 37.3242H18.7229L13.0638 26.7788H17.666Z" fill="#1E1E1E"/>
<rect x="24.1603" y="9.45142" width="53.8977" height="31.8117" fill="#14AE5C"/>
<path d="M26.8147 37.3242L30.6784 14.0515H38.9738C40.7768 14.0515 42.22 14.3621 43.3034 14.9833C44.3943 15.5969 45.1443 16.453 45.5534 17.5515C45.97 18.6424 46.0609 19.9076 45.8261 21.3469C45.5837 22.7712 45.0723 24.0212 44.292 25.0969C43.5193 26.1727 42.4852 27.0136 41.1897 27.6197C39.9018 28.2182 38.3564 28.5174 36.5534 28.5174H30.2693L30.792 25.4947H36.7579C37.9018 25.4947 38.8564 25.3318 39.6215 25.006C40.3867 24.6803 40.9852 24.2068 41.417 23.5856C41.8564 22.9644 42.1443 22.2182 42.2806 21.3469C42.4246 20.4606 42.3829 19.6992 42.1556 19.0629C41.9284 18.4189 41.4852 17.9265 40.8261 17.5856C40.167 17.2371 39.2617 17.0629 38.1102 17.0629H33.7011L30.3261 37.3242H26.8147ZM40.042 26.8242L44.0534 37.3242H40.0534L36.1443 26.8242H40.042Z" fill="white"/>
<path d="M57.7333 22.0572L60.3292 17.7697L58.6083 14.9114C58.375 14.5225 58.0396 14.3281 57.6021 14.3281C57.1646 14.3281 56.8292 14.5225 56.5958 14.9114L53.7375 19.6656L57.7333 22.0572ZM69.0208 29.9906L66.425 25.6739L70.4792 23.3406L72.3458 26.4614C72.5597 26.7919 72.6764 27.1614 72.6958 27.5697C72.7153 27.9781 72.6278 28.3572 72.4333 28.7072C72.2389 29.0961 71.9521 29.4072 71.5729 29.6406C71.1938 29.8739 70.7806 29.9906 70.3333 29.9906H69.0208ZM65.6667 38.1572L61 33.4906L65.6667 28.8239V31.1572H71.2083L69.5167 34.5406C69.3028 34.9295 69.0111 35.2406 68.6417 35.4739C68.2722 35.7072 67.8639 35.8239 67.4167 35.8239H65.6667V38.1572ZM54.3792 35.8239C53.9903 35.8239 53.6354 35.7218 53.3146 35.5176C52.9938 35.3135 52.7556 35.0461 52.6 34.7156C52.4445 34.4044 52.3715 34.0788 52.3813 33.7385C52.391 33.3982 52.4833 33.0822 52.6583 32.7906L53.65 31.1572H58.6667V35.8239H54.3792ZM51.4917 32.4989L49.5958 28.7072C49.4208 28.3572 49.3382 27.9829 49.3479 27.5843C49.3576 27.1857 49.4695 26.8114 49.6833 26.4614L50.15 25.6739L48.1667 24.4781L54.5542 22.8739L56.1583 29.2906L54.1458 28.0656L51.4917 32.4989ZM67.2417 22.5239L60.8542 20.9197L62.8667 19.7239L59.2208 13.6572H63.3333C63.7417 13.6572 64.1257 13.7593 64.4854 13.9635C64.8451 14.1676 65.132 14.4447 65.3458 14.7947L66.8625 17.3322L68.8458 16.1072L67.2417 22.5239Z" fill="white"/>
</svg>
