<svg width="261" height="138" viewBox="0 0 261 138" fill="none" xmlns="http://www.w3.org/2000/svg">
<rect x="4.01109" y="70.0658" width="218.156" height="53.6574" fill="#14AE5C"/>
<path d="M4.28799 64.7301V24.4334H19.3992C22.495 24.4334 25.0922 24.9712 27.191 26.0469C29.3029 27.1225 30.8967 28.631 31.9723 30.5724C33.061 32.5006 33.6054 34.7503 33.6054 37.3213C33.6054 39.9054 33.0545 42.1485 31.9526 44.0505C30.8639 45.9394 29.257 47.402 27.132 48.4383C25.0069 49.4614 22.3966 49.973 19.3009 49.973H8.53803V43.9128H18.3171C20.1273 43.9128 21.6095 43.6635 22.7639 43.1651C23.9182 42.6535 24.7708 41.9124 25.3218 40.9417C25.8858 39.9579 26.1678 38.7511 26.1678 37.3213C26.1678 35.8915 25.8858 34.6716 25.3218 33.6615C24.7577 32.6384 23.8985 31.8644 22.7442 31.3397C21.5899 30.8019 20.101 30.533 18.2777 30.533H11.5878V64.7301H4.28799ZM25.1053 46.4707L35.0811 64.7301H26.9352L17.1365 46.4707H25.1053ZM37.0003 64.7301V24.4334H63.2089V30.5527H44.3002V41.4926H61.8512V47.6119H44.3002V58.6108H63.3663V64.7301H37.0003ZM101.824 38.0296H94.4652C94.2553 36.8228 93.8683 35.7537 93.3043 34.8224C92.7403 33.878 92.0385 33.0778 91.199 32.4219C90.3594 31.7661 89.4019 31.2741 88.3262 30.9462C87.2637 30.6052 86.116 30.4346 84.8829 30.4346C82.6923 30.4346 80.7509 30.9856 79.0588 32.0874C77.3666 33.1762 76.0418 34.7765 75.0842 36.8884C74.1266 38.9872 73.6479 41.5516 73.6479 44.5818C73.6479 47.6644 74.1266 50.2616 75.0842 52.3735C76.0549 54.4723 77.3798 56.0595 79.0588 57.1351C80.7509 58.1976 82.6858 58.7289 84.8632 58.7289C86.07 58.7289 87.1981 58.5715 88.2475 58.2567C89.31 57.9287 90.2611 57.4499 91.1006 56.8203C91.9532 56.1907 92.6681 55.4167 93.2453 54.4985C93.8356 53.5803 94.2422 52.5309 94.4652 51.3503L101.824 51.3897C101.549 53.3048 100.952 55.1019 100.034 56.781C99.1284 58.46 97.9413 59.9422 96.4722 61.2278C95.003 62.5001 93.2846 63.4971 91.317 64.2185C89.3494 64.9269 87.1654 65.281 84.7649 65.281C81.2232 65.281 78.0619 64.4612 75.281 62.8215C72.5001 61.1818 70.3095 58.8142 68.7092 55.7184C67.1088 52.6227 66.3087 48.9105 66.3087 44.5818C66.3087 40.2399 67.1154 36.5277 68.7288 33.4451C70.3423 30.3494 72.5394 27.9817 75.3203 26.342C78.1012 24.7023 81.2494 23.8825 84.7649 23.8825C87.0079 23.8825 89.0936 24.1973 91.0219 24.8269C92.9501 25.4566 94.6685 26.3814 96.177 27.6013C97.6855 28.8081 98.9251 30.2903 99.8958 32.0481C100.88 33.7927 101.522 35.7865 101.824 38.0296ZM112.484 24.4334V64.7301H105.185V24.4334H112.484ZM151.557 38.0296H144.198C143.988 36.8228 143.601 35.7537 143.037 34.8224C142.473 33.878 141.771 33.0778 140.932 32.4219C140.092 31.7661 139.135 31.2741 138.059 30.9462C136.997 30.6052 135.849 30.4346 134.616 30.4346C132.425 30.4346 130.484 30.9856 128.792 32.0874C127.1 33.1762 125.775 34.7765 124.817 36.8884C123.86 38.9872 123.381 41.5516 123.381 44.5818C123.381 47.6644 123.86 50.2616 124.817 52.3735C125.788 54.4723 127.113 56.0595 128.792 57.1351C130.484 58.1976 132.419 58.7289 134.596 58.7289C135.803 58.7289 136.931 58.5715 137.98 58.2567C139.043 57.9287 139.994 57.4499 140.834 56.8203C141.686 56.1907 142.401 55.4167 142.978 54.4985C143.569 53.5803 143.975 52.5309 144.198 51.3503L151.557 51.3897C151.282 53.3048 150.685 55.1019 149.766 56.781C148.861 58.46 147.674 59.9422 146.205 61.2278C144.736 62.5001 143.018 63.4971 141.05 64.2185C139.082 64.9269 136.898 65.281 134.498 65.281C130.956 65.281 127.795 64.4612 125.014 62.8215C122.233 61.1818 120.042 58.8142 118.442 55.7184C116.842 52.6227 116.042 48.9105 116.042 44.5818C116.042 40.2399 116.848 36.5277 118.462 33.4451C120.075 30.3494 122.272 27.9817 125.053 26.342C127.834 24.7023 130.982 23.8825 134.498 23.8825C136.741 23.8825 138.827 24.1973 140.755 24.8269C142.683 25.4566 144.401 26.3814 145.91 27.6013C147.418 28.8081 148.658 30.2903 149.629 32.0481C150.613 33.7927 151.255 35.7865 151.557 38.0296ZM154.917 64.7301V24.4334H162.217V58.6108H179.965V64.7301H154.917ZM189.666 64.7301H181.875L196.061 24.4334H205.073L219.279 64.7301H211.487L200.724 32.6974H200.409L189.666 64.7301ZM189.922 48.9302H211.172V54.7937H189.922V48.9302Z" fill="#1E1E1E"/>
<path d="M11.1555 116.482L17.8454 76.1856H32.209C35.3309 76.1856 37.8298 76.7234 39.7056 77.7991C41.5945 78.8616 42.8931 80.3438 43.6014 82.2459C44.3229 84.1348 44.4803 86.3254 44.0737 88.8177C43.6539 91.2838 42.7685 93.4481 41.4174 95.3108C40.0794 97.1735 38.2889 98.6295 36.0458 99.6789C33.8158 100.715 31.1399 101.233 28.0179 101.233H17.1371L18.0422 95.9995H28.3721C30.3528 95.9995 32.0056 95.7174 33.3305 95.1534C34.6554 94.5893 35.6916 93.7695 36.4393 92.6939C37.2001 91.6182 37.6986 90.3262 37.9347 88.8177C38.1839 87.2829 38.1118 85.9646 37.7183 84.8628C37.3247 83.7478 36.5574 82.8952 35.4162 82.3049C34.2749 81.7015 32.7074 81.3998 30.7136 81.3998H23.0792L17.2354 116.482H11.1555ZM34.0585 98.3016L41.0042 116.482H34.0782L27.3096 98.3016H34.0585ZM55.8014 117.092C52.8369 117.092 50.3839 116.456 48.4425 115.184C46.5143 113.898 45.1632 112.095 44.3893 109.773C43.6153 107.438 43.4907 104.703 44.0154 101.568C44.527 98.4721 45.5567 95.7437 47.1046 93.3825C48.6524 91.0214 50.5807 89.1784 52.8893 87.8536C55.2111 86.5287 57.7756 85.8663 60.5827 85.8663C62.288 85.8663 63.8948 86.1483 65.4034 86.7123C66.925 87.2764 68.217 88.1618 69.2795 89.3686C70.3421 90.5754 71.0766 92.1429 71.4833 94.0712C71.903 95.9863 71.8899 98.3147 71.4439 101.056L71.1094 103.142H47.0652L47.7539 98.7344H66.0133C66.2888 97.1866 66.2166 95.8158 65.7969 94.6221C65.3771 93.4153 64.6557 92.4643 63.6325 91.7691C62.6225 91.0739 61.3501 90.7263 59.8153 90.7263C58.2412 90.7263 56.7721 91.1395 55.4079 91.9659C54.0437 92.7923 52.9025 93.8482 51.9842 95.1337C51.0791 96.4061 50.5085 97.7178 50.2724 99.0689L49.5838 103.103C49.2427 105.306 49.3017 107.077 49.7608 108.415C50.2331 109.753 51.0595 110.724 52.24 111.327C53.4206 111.931 54.8963 112.232 56.6672 112.232C57.8084 112.232 58.8643 112.075 59.835 111.76C60.8188 111.432 61.6911 110.953 62.4519 110.324C63.2127 109.681 63.8489 108.881 64.3605 107.923L69.7518 108.927C69.0303 110.566 67.994 112.003 66.6429 113.236C65.2919 114.456 63.6981 115.407 61.8617 116.089C60.0383 116.758 58.0182 117.092 55.8014 117.092ZM84.8097 117.092C81.8714 117.092 79.4644 116.43 77.5886 115.105C75.7128 113.767 74.4076 111.924 73.673 109.576C72.9384 107.228 72.8204 104.539 73.3189 101.509C73.8173 98.4393 74.8339 95.7306 76.3686 93.3825C77.9165 91.0214 79.8513 89.1784 82.1731 87.8536C84.508 86.5287 87.0987 85.8663 89.9452 85.8663C92.2407 85.8663 94.2149 86.2926 95.8677 87.1452C97.5205 87.9847 98.7732 89.1653 99.6258 90.6869C100.478 92.2085 100.846 93.9859 100.728 96.0191H95.0019C94.9101 94.6025 94.3854 93.3825 93.4278 92.3594C92.4703 91.3362 91.0601 90.8246 89.1975 90.8246C87.5578 90.8246 86.0493 91.2575 84.672 92.1233C83.2946 92.9759 82.1337 94.1958 81.1893 95.783C80.2448 97.3571 79.6021 99.2198 79.261 101.371C78.8937 103.575 78.9134 105.477 79.3201 107.077C79.7267 108.677 80.4744 109.917 81.5631 110.796C82.6519 111.675 84.0227 112.114 85.6755 112.114C86.8035 112.114 87.8529 111.911 88.8236 111.504C89.8074 111.084 90.6732 110.488 91.4209 109.714C92.1817 108.94 92.772 108.008 93.1917 106.92H98.9372C98.3731 108.874 97.4286 110.619 96.1038 112.154C94.792 113.688 93.1786 114.895 91.2635 115.774C89.3483 116.653 87.1971 117.092 84.8097 117.092ZM100.271 116.482L105.308 86.2598H111.191L106.154 116.482H100.271ZM109.479 81.5375C108.456 81.5375 107.591 81.1965 106.882 80.5144C106.187 79.8191 105.866 78.9927 105.918 78.0352C105.971 77.0645 106.377 76.2381 107.138 75.556C107.899 74.8608 108.784 74.5131 109.794 74.5131C110.817 74.5131 111.677 74.8608 112.372 75.556C113.067 76.2381 113.395 77.0645 113.356 78.0352C113.303 78.9927 112.897 79.8191 112.136 80.5144C111.388 81.1965 110.503 81.5375 109.479 81.5375ZM130.165 86.2598L129.397 90.9821H112.318L113.086 86.2598H130.165ZM112.732 116.482L118.359 82.7574C118.648 80.8685 119.31 79.301 120.346 78.0548C121.383 76.7956 122.635 75.8577 124.104 75.2412C125.574 74.6115 127.108 74.2967 128.709 74.2967C129.889 74.2967 130.88 74.3951 131.68 74.5919C132.493 74.7755 133.083 74.946 133.451 75.1034L131.306 79.8651C131.044 79.7863 130.709 79.6945 130.302 79.5896C129.896 79.4715 129.384 79.4125 128.768 79.4125C127.338 79.4125 126.256 79.7667 125.521 80.475C124.8 81.1834 124.314 82.2065 124.065 83.5445L118.615 116.482H112.732ZM139.63 117.092C136.665 117.092 134.212 116.456 132.271 115.184C130.343 113.898 128.991 112.095 128.218 109.773C127.444 107.438 127.319 104.703 127.844 101.568C128.355 98.4721 129.385 95.7437 130.933 93.3825C132.481 91.0214 134.409 89.1784 136.718 87.8536C139.039 86.5287 141.604 85.8663 144.411 85.8663C146.116 85.8663 147.723 86.1483 149.232 86.7123C150.753 87.2764 152.045 88.1618 153.108 89.3686C154.17 90.5754 154.905 92.1429 155.312 94.0712C155.731 95.9863 155.718 98.3147 155.272 101.056L154.938 103.142H130.894L131.582 98.7344H149.842C150.117 97.1866 150.045 95.8158 149.625 94.6221C149.205 93.4153 148.484 92.4643 147.461 91.7691C146.451 91.0739 145.178 90.7263 143.644 90.7263C142.07 90.7263 140.6 91.1395 139.236 91.9659C137.872 92.7923 136.731 93.8482 135.813 95.1337C134.907 96.4061 134.337 97.7178 134.101 99.0689L133.412 103.103C133.071 105.306 133.13 107.077 133.589 108.415C134.061 109.753 134.888 110.724 136.068 111.327C137.249 111.931 138.725 112.232 140.495 112.232C141.637 112.232 142.693 112.075 143.663 111.76C144.647 111.432 145.519 110.953 146.28 110.324C147.041 109.681 147.677 108.881 148.189 107.923L153.58 108.927C152.859 110.566 151.822 112.003 150.471 113.236C149.12 114.456 147.526 115.407 145.69 116.089C143.867 116.758 141.847 117.092 139.63 117.092Z" fill="white"/>
<path d="M185.747 89.9779L190.562 82.0238L187.37 76.7211C186.937 75.9997 186.315 75.6389 185.503 75.6389C184.692 75.6389 184.069 75.9997 183.636 76.7211L178.334 85.5409L185.747 89.9779ZM206.687 104.696L201.871 96.6874L209.392 92.3587L212.855 98.1484C213.252 98.7616 213.469 99.447 213.505 100.205C213.541 100.962 213.378 101.666 213.018 102.315C212.657 103.036 212.125 103.613 211.422 104.046C210.718 104.479 209.952 104.696 209.122 104.696H206.687ZM200.464 119.846L191.807 111.189L200.464 102.531V106.86H210.745L207.607 113.137C207.21 113.858 206.669 114.435 205.984 114.868C205.298 115.301 204.541 115.517 203.711 115.517H200.464V119.846ZM179.524 115.517C178.803 115.517 178.144 115.328 177.549 114.949C176.954 114.571 176.512 114.075 176.223 113.461C175.935 112.884 175.8 112.28 175.818 111.649C175.836 111.017 176.007 110.431 176.332 109.89L178.171 106.86H187.478V115.517H179.524ZM174.167 109.349L170.65 102.315C170.326 101.666 170.172 100.971 170.19 100.232C170.208 99.4921 170.416 98.7977 170.812 98.1484L171.678 96.6874L167.999 94.469L179.849 91.493L182.825 103.397L179.091 101.124L174.167 109.349ZM203.386 90.8436L191.536 87.8676L195.27 85.6491L188.506 74.3944H196.136C196.893 74.3944 197.606 74.5838 198.273 74.9626C198.94 75.3413 199.472 75.8554 199.869 76.5047L202.683 81.2122L206.362 78.9396L203.386 90.8436Z" fill="white"/>
</svg>
